<?xml version="1.0" encoding="utf-8"?>
<!-- Svg Vector Icons : http://www.onlinewebfonts.com/icon -->
<!DOCTYPE svg PUBLIC "-//W3C//DTD SVG 1.1//EN" "http://www.w3.org/Graphics/SVG/1.1/DTD/svg11.dtd">
<svg version="1.1" xmlns="http://www.w3.org/2000/svg" xmlns:xlink="http://www.w3.org/1999/xlink" x="0px" y="0px" viewBox="0 0 1000 1000" enable-background="new 0 0 1000 1000" xml:space="preserve">
<metadata> Svg Vector Icons : http://www.onlinewebfonts.com/icon </metadata>
<g><path d="M806.3,708.6c-33.8,0-61.3,27.4-61.3,61.3c0,33.8,27.4,61.3,61.3,61.3s61.3-27.4,61.3-61.3C867.5,736,840.1,708.6,806.3,708.6z M806.3,790.3c-11.2,0-20.4-9.2-20.4-20.4c0-11.2,9.2-20.4,20.4-20.4s20.4,9.2,20.4,20.4C826.7,781.2,817.5,790.3,806.3,790.3z M990,500c0-270.6-219.4-490-490-490C229.4,10,10,229.4,10,500c0,270.6,219.4,490,490,490c100,0,193.1-30.2,270.6-81.7H990V622.5h-16.1C984.1,583.3,990,542.4,990,500z M500,949.2c-108.1,0-207.2-38.2-284.7-101.9C225.6,698.9,348.9,581.7,500,581.7c53.7,0,103.8,15.1,146.5,40.8h-24v285.8H687C630.1,934.5,566.8,949.2,500,949.2z M336.7,377.5c0-90.2,73.2-163.3,163.3-163.3s163.3,73.2,163.3,163.3S590.2,540.8,500,540.8S336.7,467.7,336.7,377.5z M949.2,867.5H663.3V663.3h61.3h40.8v-40.8h81.7v40.8h40.8h61.3V867.5z M887.9,622.5v-40.8h-40.8h-81.7h-40.8v40.8h-9.2c-33.8-29.8-73.8-52.9-118-66.6c63.3-34.7,106.7-101.2,106.7-178.4c0-112.7-91.4-204.2-204.2-204.2c-112.7,0-204.2,91.4-204.2,204.2c0,77.2,43.4,143.7,106.7,178.3C286.6,592.1,198.7,691,178.2,813.1C99.5,732.1,50.8,621.8,50.8,500C50.8,251.9,251.9,50.8,500,50.8S949.2,251.9,949.2,500c0,42.5-6.2,83.5-17.4,122.5H887.9z"/></g>
</svg>